# AST/ASF file generated using VICON BodyLanguage
# -----------------------------------------------
:version 1.10
:name VICON
:units
  mass 1.0
  length 0.45
  angle deg
:documentation
   .ast/.asf automatically generated from VICON data using
   VICON BodyBuilder and BodyLanguage model FoxedUp or BRILLIANT.MOD
:root
   order TX TY TZ RX RY RZ
   axis XYZ
   position 0 0 0  
   orientation 0 0 0 
:bonedata
  begin
     id 1 
     name lhipjoint
     direction 0.682418 -0.694059 0.22932 
     length 2.25561 
     axis 0 0 0  XYZ
  end
  begin
     id 2 
     name lfemur
     direction 0.34202 -0.939693 0  
     length 6.96448  
     axis 0 0 20  XYZ
    dof rx ry rz
    limits (-160.0 20.0)
           (-70.0 70.0)
           (-60.0 70.0)
  end
  begin
     id 3 
     name ltibia
     direction 0.34202 -0.939693 0   
     length 6.88553   
     axis 0 0 20   XYZ
    dof rx
    limits (-10.0 170.0)
  end
  begin
     id 4 
     name lfoot
     direction 0.0723587 -0.198804 0.977364   
     length 1.88518   
     axis -90 7.62852e-016 20   XYZ
    dof rx rz
    limits (-45.0 90.0)
           (-70.0 20.0)
  end
  begin
     id 5 
     name ltoes
     direction 1.53558e-011 -4.21962e-011 1   
     length 0.952124   
     axis -90 7.62852e-016 20   XYZ
    dof rx
    limits (-90.0 20.0)
  end
  begin
     id 6 
     name rhipjoint
     direction -0.657603 -0.71533 0.236348   
     length 2.18854  
     axis 0 0 0  XYZ 
  end
  begin
     id 7 
     name rfemur
     direction -0.34202 -0.939693 0   
     length 6.86686   
     axis 0 0 -20   XYZ
    dof rx ry rz
    limits (-160.0 20.0)
           (-70.0 70.0)
           (-70.0 60.0)
  end
  begin
     id 8 
     name rtibia
     direction -0.34202 -0.939693 0   
     length 6.59503   
     axis 0 0 -20   XYZ
    dof rx
    limits (-10.0 170.0)
 end
 begin
     id 9 
     name rfoot
     direction -0.101977 -0.280179 0.954516   
     length 1.93723  
     axis -90 -7.62852e-016 -20   XYZ
    dof rx rz
    limits (-45.0 90.0)
           (-20.0 70.0)
  end
  begin
     id 10 
     name rtoes
     direction -1.53564e-011 -4.21897e-011 1   
     length 0.970315   
     axis -90 -7.62852e-016 -20   XYZ
    dof rx
    limits (-90.0 20.0)
  end
  begin
     id 11 
     name lowerback
     direction -0.0339559 0.999421 -0.00235966   
     length 1.88543   
     axis 0 0 0   XYZ
    dof rx ry rz
    limits (-20.0 45.0)
           (-30.0 30.0)
           (-30.0 30.0)
  end
  begin
     id 12 
     name upperback
     direction 0.00401003 0.999739 0.0224689   
     length 1.8856   
     axis 0 0 0   XYZ
    dof rx ry rz
    limits (-20.0 45.0)
           (-30.0 30.0)
           (-30.0 30.0)
  end
  begin
     id 13 
     name thorax
     direction 0.0198619 0.999546 0.0226536   
     length 1.88352   
     axis 0 0 0   XYZ
    dof rx ry rz
    limits (-20.0 45.0)
           (-30.0 30.0)
           (-30.0 30.0)
  end
  begin
     id 14 
     name lowerneck
     direction -0.0461848 0.998632 0.0245198   
     length 1.34895   
     axis 0 0 0   XYZ
    dof rx ry rz
    limits (-20.0 45.0)
           (-30.0 30.0)
           (-30.0 30.0)
  end
  begin
     id 15 
     name upperneck
     direction -0.0180627 0.994724 -0.100984   
     length 1.35214   
     axis 0 0 0   XYZ
    dof rx ry rz
    limits (-20.0 45.0)
           (-30.0 30.0)
           (-30.0 30.0)
  end
  begin
     id 16
     name head
     direction -0.00374772 0.999293 -0.037403  
     length 1.3568  
     axis 0 0 0   XYZ
    dof rx ry rz
    limits (-20.0 45.0)
           (-30.0 30.0)
           (-30.0 30.0)
  end
  begin
     id 17 
     name lclavicle
     direction 0.971773 0.191119 0.138311  
     length 2.84954  
     axis 0 0 0   XYZ
    dof ry rz
    limits (-20.0 10.0)
           (0.0 20.0)
  end
  begin
     id 18 
     name lhumerus
     direction 1 -4.4897e-011 -2.43761e-027   
     length 4.40919   
     axis 180 -30 -90   XYZ
    dof rx ry rz
    limits (-60.0 90.0)
           (-90.0 90.0)
           (-90.0 90.0)
  end
  begin
     id 19
     name lradius
     direction 1 -4.4896e-011 -9.1621e-027   
     length 3.03857   
     axis 180 -30 -90   XYZ
    dof rx
    limits (-10.0 170.0)
  end
  begin
     id 20
     name lwrist
     direction 1 -4.4896e-011 -1.41363e-026   
     length 1.51928   
     axis 1.07133e-014 90 90   XYZ
    dof ry
    limits (-180.0 0.0)
 end
  begin
     id 21 
     name lhand
     direction 1 -4.48978e-011 -2.82725e-026   
     length 0.523208   
     axis 1.80403e-014 90 90   XYZ
    dof rx rz
    limits (-90.0 90.0)
           (-45.0 45.0)
  end
  begin
     id 22 
     name lfingers
     direction 1 -4.48977e-011 -5.6545e-026   
     length 0.421824   
     axis 3.60806e-014 90 90   XYZ
    dof rx
    limits (0.0 90.0)
  end
  begin
     id 23
     name lthumb
     direction 0.707107 -6.34962e-011 0.707107   
     length 0.605657   
     axis -90 45 2.85299e-015   XYZ
    dof rx rz
    limits (-45.0 45.0)
           (-45.0 45.0)
  end
  begin
     id 24 
     name rclavicle
     direction -0.957247 0.24311 0.156766   
     length 3.12406  
     axis 0 0 0   XYZ 
    dof ry rz
    limits (-10.0 20.0)
           (-20.0 0.0)
  end
  begin
     id 25 
     name rhumerus
     direction -1 -4.48964e-011 -1.70632e-027  
     length 4.61969   
     axis 180 30 90   XYZ
    dof rx ry rz
    limits (-90.0 60.0)
           (-90.0 90.0)
           (-90.0 90.0)
  end
  begin
     id 26 
     name rradius
     direction -1 -4.48966e-011 -6.60395e-027   
     length 3.09382   
     axis 180 30 90   XYZ
    dof rx
    limits (-10.0 170.0)
  end
  begin
     id 27 
     name rwrist
     direction -1 -4.48963e-011 -1.41363e-026   
     length 1.54691   
     axis 1.07133e-014 -90 -90   XYZ
    dof ry
    limits (-180.0 0.0)
  end
  begin
     id 28
     name rhand
     direction -1 -4.49013e-011 -2.82725e-026   
     length 0.500896   
     axis 1.80403e-014 -90 -90   XYZ
    dof rx rz
    limits (-90.0 90.0)
           (-45.0 45.0)
  end
  begin
     id 29
     name rfingers
     direction -1 -4.48902e-011 -5.6545e-026   
     length 0.403835   
     axis 3.60806e-014 -90 -90   XYZ
    dof rx
    limits (0.0 90.0)
  end
  begin
     id 30
     name rthumb
     direction -0.707107 -6.34953e-011 0.707107   
     length 0.579829   
     axis -90 -45 -2.85299e-015   XYZ
    dof rx rz
    limits (-45.0 45.0)
           (-45.0 45.0)
  end
:hierarchy
  begin
    root lhipjoint rhipjoint lowerback
    lhipjoint lfemur
    lfemur ltibia
    ltibia lfoot
    lfoot ltoes
    rhipjoint rfemur
    rfemur rtibia
    rtibia rfoot
    rfoot rtoes
    lowerback upperback
    upperback thorax
    thorax lowerneck lclavicle rclavicle
    lowerneck upperneck
    upperneck head
    lclavicle lhumerus
    lhumerus lradius
    lradius lwrist
    lwrist lhand lthumb
    lhand lfingers
    rclavicle rhumerus
    rhumerus rradius
    rradius rwrist
    rwrist rhand rthumb
    rhand rfingers
  end

#!OML:ASF E:\madness\Project 1\Capture day 1\Session 1\Female1.ASF
:FULLY-SPECIFIED
:DEGREES
65
root 1.57235 16.3349 -0.577622 -154.372 -81.0342 163.317
lowerback -3.12786 1.04409 -2.57171
upperback -3.85292 1.35114 0.090044
thorax -2.26964 0.708494 1.54791
lowerneck 1.2733 0.942054 0.534819
upperneck 4.41768 1.38602 -6.72706
head 1.22115 0.572564 -2.20475
rclavicle 1.03345e-014 2.38542e-015
rhumerus -52.1367 -1.30998 -86.1174
rradius 84.1193
rwrist -3.89233
rhand -14.1338 -47.9764
rfingers 7.12502
rthumb 12.0001 -77.6124
lclavicle 1.03345e-014 2.38542e-015
lhumerus -52.7626 -0.896114 92.0065
lradius 83.0015
lwrist 0.949503
lhand -22.1185 -14.9167
lfingers 7.12502
lthumb 4.29437 15.0198
rfemur -12.3481 17.2414 10.7728
rtibia 15.1612
rfoot -13.871 -17.3166
rtoes 10.0449
lfemur -6.4675 -30.1065 -18.8436
ltibia 12.1214
lfoot -8.19723 40.221
ltoes 19.669
66
root 1.56428 16.3336 -0.588878 -153.246 -81.2181 162.148
lowerback -3.24128 1.08057 -2.6184
upperback -3.74907 1.40583 -0.0418895
thorax -2.09911 0.733063 1.44257
lowerneck 1.40806 1.02722 0.469381
upperneck 4.19684 1.48353 -6.46498
head 1.12754 0.633396 -2.10506
rclavicle 2.63429e-016 -9.54166e-015
rhumerus -51.9946 -1.27517 -86.194
rradius 85.8866
rwrist -4.34979
rhand -14.0677 -48.1991
rfingers 7.12502
rthumb 12.0638 -77.8314
lclavicle 2.63429e-016 -9.54166e-015
lhumerus -52.6687 -1.61093 92.1518
lradius 84.7744
lwrist 1.25512
lhand -22.6691 -14.9723
lfingers 7.12502
lthumb 3.76263 14.9743
rfemur -12.2859 17.0374 10.7602
rtibia 15.3491
rfoot -14.0691 -17.3408
rtoes 10.1906
lfemur -6.43925 -29.8802 -18.9281
ltibia 12.1205
lfoot -7.77468 39.8136
ltoes 18.8311
67
root 1.5623 16.3322 -0.599412 -152.224 -81.4923 161.078
lowerback -3.24785 1.07595 -2.64556
upperback -3.62644 1.40523 -0.112928
thorax -1.96757 0.731335 1.38645
lowerneck 1.25557 1.18646 0.376485
upperneck 4.16309 1.69551 -6.27439
head 1.14742 0.740088 -2.02414
rclavicle -9.43839e-015 3.37934e-015
rhumerus -51.7627 -1.22036 -86.1944
rradius 87.7064
rwrist -4.7669
rhand -13.3328 -48.6294
rfingers 7.12502
rthumb 12.7724 -78.2187
lclavicle -9.43839e-015 3.37934e-015
lhumerus -52.4922 -2.28239 92.3391
lradius 86.5477
lwrist 1.37812
lhand -23.1209 -15.1443
lfingers 7.12502
lthumb 3.32639 14.8095
rfemur -12.2343 16.8807 10.8115
rtibia 15.5585
rfoot -13.9813 -17.481
rtoes 9.32636
lfemur -6.4264 -29.8065 -18.9212
ltibia 12.0806
lfoot -7.06297 39.478
ltoes 17.7452
68
root 1.56967 16.3305 -0.611632 -151.813 -81.7264 160.639
lowerback -3.13537 1.07852 -2.68271
upperback -3.50187 1.41277 -0.113998
thorax -1.90319 0.736062 1.40542
lowerneck 0.917738 1.28023 0.246019
upperneck 4.14701 1.82607 -6.15777
head 1.20191 0.801167 -1.96078
rclavicle 1.17361e-014 -6.95746e-015
rhumerus -51.4668 -1.04532 -86.1164
rradius 89.5865
rwrist -5.04787
rhand -14.7563 -44.888
rfingers 7.12502
rthumb 11.3998 -74.5581
lclavicle 1.17361e-014 -6.95746e-015
lhumerus -52.2197 -2.82125 92.5364
lradius 88.3111
lwrist 1.47922
lhand -23.3267 -15.1908
lfingers 7.12502
lthumb 3.12762 14.766
rfemur -12.2839 16.7411 10.9366
rtibia 15.7844
rfoot -13.6075 -17.5733
rtoes 7.74334
lfemur -6.43126 -29.6861 -18.7966
ltibia 12.0038
lfoot -6.53979 39.1405
ltoes 17.1228
69
root 1.57767 16.3298 -0.625254 -151.223 -81.8282 160.036
lowerback -2.97333 1.12097 -2.84424
upperback -3.45812 1.46993 -0.114256
thorax -1.95604 0.769557 1.49321
lowerneck 0.741789 1.34841 0.102416
upperneck 4.07024 1.91554 -5.9996
head 1.20668 0.846145 -1.88216
rclavicle -1.07157e-014 4.96962e-015
rhumerus -51.2213 -0.806558 -85.9763
rradius 91.3296
rwrist -5.24133
rhand -14.587 -46.5788
rfingers 7.12502
rthumb 11.5631 -76.2398
lclavicle -1.07157e-014 4.96962e-015
lhumerus -52.1141 -3.2422 92.7733
lradius 90.1205
lwrist 1.53498
lhand -23.0421 -15.6501
lfingers 7.12502
lthumb 3.40248 14.3025
rfemur -12.396 16.5953 10.9627
rtibia 15.9973
rfoot -13.395 -17.5708
rtoes 6.70993
lfemur -6.45334 -29.5678 -18.7513
ltibia 11.9509
lfoot -6.90154 38.9147
ltoes 17.7284
70
root 1.5764 16.3303 -0.63739 -149.832 -82.0142 158.69
lowerback -2.93538 1.14096 -2.98829
upperback -3.47226 1.49607 -0.166794
thorax -1.99602 0.78571 1.51905
lowerneck 0.569206 1.40732 0.150152
upperneck 4.15085 2.00308 -6.02008
head 1.26599 0.886126 -1.89614
rclavicle -3.28243e-014 1.59028e-015
rhumerus -50.9307 -0.725255 -85.7829
rradius 92.8433
rwrist -5.14707
rhand -16.8978 -44.9607
rfingers 7.12502
rthumb 9.33393 -74.7341
lclavicle -3.28243e-014 1.59028e-015
lhumerus -52.1317 -3.65869 92.9842
lradius 91.9041
lwrist 1.35558
lhand -22.3662 -16.3066
lfingers 7.12502
lthumb 4.05517 13.6345
rfemur -12.5027 16.36 10.9085
rtibia 16.21
rfoot -13.4879 -17.578
rtoes 6.56582
lfemur -6.56781 -29.3869 -18.7495
ltibia 11.921
lfoot -7.10594 38.5398
ltoes 17.8411
71
root 1.57107 16.3304 -0.649951 -148.718 -82.2861 157.614
lowerback -2.99129 1.12453 -3.0392
upperback -3.4135 1.47859 -0.218354
thorax -1.90325 0.776072 1.49644
lowerneck 0.309729 1.43263 0.360548
upperneck 4.20015 2.05065 -6.24201
head 1.33518 0.904773 -2.00466
rclavicle -6.18717e-015 -2.78299e-015
rhumerus -50.5367 -0.637887 -85.7361
rradius 94.4382
rwrist -5.19334
rhand -14.1784 -45.0646
rfingers 7.12502
rthumb 11.9571 -74.7031
lclavicle -6.18717e-015 -2.78299e-015
lhumerus -51.8045 -4.27535 93.0963
lradius 93.3716
lwrist 1.18554
lhand -22.602 -15.7599
lfingers 7.12502
lthumb 3.82744 14.1854
rfemur -12.5531 16.1488 10.9593
rtibia 16.4374
rfoot -13.741 -17.6296
rtoes 6.67086
lfemur -6.66763 -29.2886 -18.6599
ltibia 11.8783
lfoot -6.352 38.1989
ltoes 16.6188
72
root 1.57384 16.3309 -0.665161 -148.218 -82.5692 157.147
lowerback -3.03537 1.1885 -3.01555
upperback -3.43308 1.56401 -0.230878
thorax -1.90189 0.818071 1.47192
lowerneck 0.822183 1.42095 0.130248
upperneck 3.85443 2.00456 -6.07643
head 1.12931 0.896952 -1.91079
rclavicle -1.89467e-015 4.77083e-015
rhumerus -50.5192 -0.542131 -85.6425
rradius 96.2936
rwrist -5.4488
rhand -14.632 -45.601
rfingers 7.12502
rthumb 11.5196 -75.2644
lclavicle -1.89467e-015 4.77083e-015
lhumerus -51.4124 -5.2229 93.338
lradius 94.5383
lwrist 1.22323
lhand -23.9383 -15.4058
lfingers 7.12502
lthumb 2.53692 14.5589
rfemur -12.6492 15.9921 11.1089
rtibia 16.6571
rfoot -13.9407 -17.691
rtoes 7.03476
lfemur -6.79192 -29.2456 -18.4406
ltibia 11.8431
lfoot -5.79428 37.9233
ltoes 15.9471
73
root 1.58791 16.3314 -0.677264 -146.942 -82.8791 155.921
lowerback -2.86926 1.14427 -3.06533
upperback -3.41131 1.50131 -0.274824
thorax -1.96963 0.78863 1.4506
lowerneck 0.744611 1.57708 -0.141374
upperneck 3.79958 2.20529 -5.66903
head 1.12119 1.00042 -1.7288
rclavicle -1.17097e-015 1.98785e-016
rhumerus -50.2026 -0.268843 -85.6489
rradius 97.9842
rwrist -5.71298
rhand -14.5351 -46.2203
rfingers 7.12502
rthumb 11.6131 -75.8785
lclavicle -1.17097e-015 1.98785e-016
lhumerus -50.8696 -5.89663 93.3461
lradius 95.779
lwrist 1.34055
lhand -24.7828 -15.8713
lfingers 7.12502
lthumb 1.72133 14.1015
rfemur -12.8272 15.6955 11.1746
rtibia 16.8803
rfoot -13.9478 -17.7184
rtoes 7.31171
lfemur -7.00953 -28.8848 -18.2582
ltibia 11.8112
lfoot -5.56229 37.2495
ltoes 14.9197
74
root 1.59776 16.3289 -0.687072 -144.707 -83.1412 153.62
lowerback -2.46804 1.10734 -3.18698
upperback -3.47941 1.4359 -0.359639
thorax -2.263 0.762409 1.42152
lowerneck 0.648223 1.71402 -0.388671
upperneck 3.88447 2.3876 -5.3475
head 1.16032 1.08965 -1.58034
rclavicle 2.25683e-014 -1.59028e-014
rhumerus -50.0229 -0.0640272 -85.592
rradius 99.6233
rwrist -6.17115
rhand -14.2371 -46.2306
rfingers 7.12502
rthumb 11.9005 -75.8723
lclavicle 2.25683e-014 -1.59028e-014
lhumerus -50.648 -6.46183 93.3908
lradius 97.177
lwrist 1.39604
lhand -25.0056 -16.1087
lfingers 7.12502
lthumb 1.50617 13.8657
rfemur -12.8325 15.2907 11.1516
rtibia 17.1162
rfoot -13.9488 -17.6965
rtoes 7.08911
lfemur -7.04763 -28.6054 -18.3149
ltibia 11.7733
lfoot -5.63949 36.6578
ltoes 15.1808
